<svg xmlns="http://www.w3.org/2000/svg" viewBox="0 0 1600 920" fill="none">
  <defs>
    <linearGradient id="cardGold" x1="94" y1="0" x2="457" y2="526" gradientUnits="userSpaceOnUse">
      <stop stop-color="#FFE5BC"/>
      <stop offset="0.28" stop-color="#B96825"/>
      <stop offset="0.58" stop-color="#4E220B"/>
      <stop offset="1" stop-color="#F7C58B"/>
    </linearGradient>
    <linearGradient id="darkCut" x1="80" y1="65" x2="430" y2="455" gradientUnits="userSpaceOnUse">
      <stop stop-color="#060606"/>
      <stop offset="0.52" stop-color="#000000"/>
      <stop offset="1" stop-color="#1C0E04"/>
    </linearGradient>
    <linearGradient id="edge" x1="0" y1="0" x2="1" y2="1">
      <stop stop-color="#FFF1D1"/>
      <stop offset="0.45" stop-color="#D08440"/>
      <stop offset="1" stop-color="#5F2B10"/>
    </linearGradient>
    <filter id="shadow" x="-30%" y="-30%" width="160%" height="160%" color-interpolation-filters="sRGB">
      <feDropShadow dx="0" dy="38" stdDeviation="36" flood-color="#000" flood-opacity=".72"/>
      <feDropShadow dx="0" dy="0" stdDeviation="16" flood-color="#F5A85C" flood-opacity=".22"/>
    </filter>
    <filter id="glow" x="-80%" y="-80%" width="260%" height="260%" color-interpolation-filters="sRGB">
      <feGaussianBlur stdDeviation="9" result="blur"/>
      <feColorMatrix in="blur" type="matrix" values="1 0 0 0 1 0 .56 0 0 .45 0 0 .2 0 .08 0 0 0 .8 0"/>
      <feMerge>
        <feMergeNode/>
        <feMergeNode in="SourceGraphic"/>
      </feMerge>
    </filter>
    <clipPath id="clip">
      <rect width="1600" height="920"/>
    </clipPath>
  </defs>
  <g clip-path="url(#clip)">
    <rect width="1600" height="920" fill="#020202"/>
    <path d="M80 850C362 742 521 710 777 714C1032 718 1244 630 1548 420" stroke="#B96F2B" stroke-opacity=".25" stroke-width="2"/>
    <path d="M-80 760C222 687 479 632 780 654C1056 674 1276 528 1628 272" stroke="#FFD6A3" stroke-opacity=".13" stroke-width="2"/>

    <g filter="url(#shadow)" transform="translate(618 130) rotate(8)">
      <rect x="0" y="0" width="520" height="650" rx="36" fill="url(#cardGold)" stroke="url(#edge)" stroke-width="4"/>
      <path d="M100 96H360C412 96 454 138 454 190V494C454 546 412 588 360 588H100C48 588 6 546 6 494V190C6 138 48 96 100 96Z" fill="url(#darkCut)" fill-opacity=".93"/>
      <rect x="58" y="48" width="136" height="38" rx="19" fill="#070707" fill-opacity=".78"/>
      <circle cx="410" cy="72" r="18" fill="#050505" fill-opacity=".88"/>
      <path d="M138 218H336M138 278H292M138 338H368" stroke="#F4C08B" stroke-opacity=".8" stroke-width="10" stroke-linecap="round"/>
      <rect x="130" y="410" width="255" height="78" rx="24" stroke="#FFD6A3" stroke-opacity=".78" stroke-width="8"/>
      <path d="M186 448L218 478L286 404" stroke="#FFD6A3" stroke-width="12" stroke-linecap="round" stroke-linejoin="round"/>
    </g>

    <g filter="url(#shadow)" transform="translate(1010 205) rotate(-15)">
      <rect x="0" y="0" width="430" height="540" rx="32" fill="url(#cardGold)" stroke="url(#edge)" stroke-width="4"/>
      <path d="M84 96H345V415H84V96Z" fill="#050505" fill-opacity=".88"/>
      <path d="M126 160H302M126 220H302M126 280H248" stroke="#FFD6A3" stroke-opacity=".78" stroke-width="8" stroke-linecap="round"/>
      <circle cx="130" cy="390" r="24" stroke="#FFD6A3" stroke-width="8"/>
      <path d="M185 376H313" stroke="#FFD6A3" stroke-width="8" stroke-linecap="round"/>
      <path d="M185 408H276" stroke="#FFD6A3" stroke-opacity=".58" stroke-width="8" stroke-linecap="round"/>
    </g>

    <g filter="url(#shadow)" transform="translate(314 440) rotate(-21)">
      <rect x="0" y="0" width="420" height="520" rx="30" fill="url(#cardGold)" stroke="url(#edge)" stroke-width="4"/>
      <path d="M80 112H340V398H80V112Z" fill="#030303" fill-opacity=".88"/>
      <path d="M128 348L188 232L250 292L305 178" stroke="#FFD6A3" stroke-width="10" stroke-linecap="round" stroke-linejoin="round"/>
      <circle cx="188" cy="232" r="12" fill="#FFD6A3"/>
      <circle cx="250" cy="292" r="12" fill="#FFD6A3"/>
      <circle cx="305" cy="178" r="12" fill="#FFD6A3"/>
      <path d="M124 156H220" stroke="#FFD6A3" stroke-opacity=".58" stroke-width="8" stroke-linecap="round"/>
    </g>

    <g filter="url(#shadow)" transform="translate(72 625) rotate(-27)">
      <rect x="0" y="0" width="340" height="420" rx="28" fill="url(#cardGold)" stroke="url(#edge)" stroke-width="4"/>
      <rect x="64" y="86" width="212" height="190" rx="24" fill="#030303" fill-opacity=".88"/>
      <path d="M116 152C116 124 138 102 166 102H186C214 102 236 124 236 152V188C236 216 214 238 186 238H170L132 270V238C123 238 116 231 116 222V152Z" stroke="#FFD6A3" stroke-width="8" stroke-linejoin="round"/>
      <circle cx="154" cy="174" r="8" fill="#FFD6A3"/>
      <circle cx="176" cy="174" r="8" fill="#FFD6A3"/>
      <circle cx="198" cy="174" r="8" fill="#FFD6A3"/>
    </g>

    <g filter="url(#shadow)" transform="translate(1198 498) rotate(21)">
      <rect x="0" y="0" width="330" height="410" rx="28" fill="url(#cardGold)" stroke="url(#edge)" stroke-width="4"/>
      <rect x="62" y="78" width="206" height="222" rx="24" fill="#030303" fill-opacity=".88"/>
      <path d="M106 152H224M106 206H224M106 260H178" stroke="#FFD6A3" stroke-width="8" stroke-linecap="round"/>
      <path d="M94 120H236" stroke="#FFD6A3" stroke-opacity=".45" stroke-width="8" stroke-linecap="round"/>
      <circle cx="235" cy="330" r="26" stroke="#FFD6A3" stroke-width="7"/>
    </g>

    <g filter="url(#glow)">
      <circle cx="1196" cy="250" r="5" fill="#FFD6A3"/>
      <circle cx="1270" cy="708" r="4" fill="#FFD6A3"/>
      <circle cx="506" cy="186" r="4" fill="#FFD6A3"/>
      <path d="M1328 135V198M1297 166H1360" stroke="#FFD6A3" stroke-opacity=".72" stroke-width="6" stroke-linecap="round"/>
      <path d="M228 386V449M197 417H260" stroke="#FFD6A3" stroke-opacity=".46" stroke-width="6" stroke-linecap="round"/>
    </g>
  </g>
</svg>
