<svg xmlns="http://www.w3.org/2000/svg" viewBox="0 0 960 1240" fill="none">
  <defs>
    <linearGradient id="frame" x1="92" y1="0" x2="842" y2="1184" gradientUnits="userSpaceOnUse">
      <stop stop-color="#0D0D0D"/>
      <stop offset=".46" stop-color="#030303"/>
      <stop offset="1" stop-color="#2B1307"/>
    </linearGradient>
    <linearGradient id="gold" x1="0" y1="0" x2="1" y2="1">
      <stop stop-color="#FFE6BD"/>
      <stop offset=".42" stop-color="#C77735"/>
      <stop offset="1" stop-color="#5D2A10"/>
    </linearGradient>
    <filter id="softShadow" x="-25%" y="-25%" width="150%" height="150%" color-interpolation-filters="sRGB">
      <feDropShadow dx="0" dy="30" stdDeviation="30" flood-color="#000" flood-opacity=".62"/>
      <feDropShadow dx="0" dy="0" stdDeviation="16" flood-color="#D88643" flood-opacity=".2"/>
    </filter>
  </defs>
  <rect width="960" height="1240" fill="#050505"/>
  <g filter="url(#softShadow)" transform="translate(82 66)">
    <rect width="796" height="1108" rx="46" fill="url(#frame)" stroke="#B8763D" stroke-opacity=".62" stroke-width="2"/>
    <rect x="28" y="28" width="740" height="1052" rx="32" fill="#070707" stroke="#FFFFFF" stroke-opacity=".06"/>

    <rect x="62" y="72" width="126" height="30" rx="15" fill="#FFF1D5"/>
    <rect x="642" y="72" width="68" height="30" rx="15" fill="#D78A45"/>
    <circle cx="724" cy="87" r="15" fill="#1B0D06" stroke="#F0B77D"/>

    <rect x="62" y="140" width="238" height="86" rx="24" fill="#FFFFFF" fill-opacity=".08"/>
    <rect x="326" y="140" width="384" height="86" rx="24" fill="#FFFFFF" fill-opacity=".05"/>
    <path d="M90 177H222M90 198H176" stroke="#FFE0B7" stroke-opacity=".68" stroke-width="10" stroke-linecap="round"/>
    <path d="M356 177H610M356 198H538" stroke="#FFE0B7" stroke-opacity=".38" stroke-width="10" stroke-linecap="round"/>

    <rect x="62" y="266" width="648" height="252" rx="30" fill="#0D0D0D" stroke="#D18A4A" stroke-opacity=".36"/>
    <path d="M112 456L202 366L282 414L374 312L486 385L632 292" stroke="#FFD9A8" stroke-width="10" stroke-linecap="round" stroke-linejoin="round"/>
    <path d="M112 456L202 366L282 414L374 312L486 385L632 292V456H112Z" fill="url(#gold)" fill-opacity=".14"/>
    <circle cx="202" cy="366" r="14" fill="#FFD9A8"/>
    <circle cx="374" cy="312" r="14" fill="#FFD9A8"/>
    <circle cx="632" cy="292" r="14" fill="#FFD9A8"/>

    <rect x="62" y="556" width="304" height="218" rx="28" fill="#FFFFFF" fill-opacity=".06" stroke="#FFFFFF" stroke-opacity=".06"/>
    <rect x="406" y="556" width="304" height="218" rx="28" fill="#FFFFFF" fill-opacity=".06" stroke="#FFFFFF" stroke-opacity=".06"/>
    <circle cx="112" cy="612" r="24" fill="#D78A45"/>
    <path d="M152 598H300M152 630H244" stroke="#FFF0D4" stroke-opacity=".62" stroke-width="9" stroke-linecap="round"/>
    <path d="M112 690H312M112 724H270" stroke="#FFFFFF" stroke-opacity=".18" stroke-width="9" stroke-linecap="round"/>
    <rect x="456" y="602" width="200" height="26" rx="13" fill="#FFF0D4" fill-opacity=".74"/>
    <rect x="456" y="654" width="178" height="18" rx="9" fill="#FFFFFF" fill-opacity=".18"/>
    <rect x="456" y="698" width="136" height="18" rx="9" fill="#FFFFFF" fill-opacity=".18"/>

    <rect x="62" y="814" width="648" height="206" rx="30" fill="#FFFFFF" fill-opacity=".04" stroke="#D18A4A" stroke-opacity=".28"/>
    <g stroke="#FFE0B7" stroke-linecap="round" stroke-width="9" opacity=".78">
      <path d="M112 876H300"/>
      <path d="M112 932H430"/>
      <path d="M112 988H354"/>
      <path d="M496 876H650"/>
      <path d="M496 932H626"/>
      <path d="M496 988H602"/>
    </g>
    <g opacity=".7">
      <rect x="456" y="864" width="24" height="24" rx="8" fill="#D78A45"/>
      <rect x="456" y="920" width="24" height="24" rx="8" fill="#D78A45"/>
      <rect x="456" y="976" width="24" height="24" rx="8" fill="#D78A45"/>
    </g>
  </g>
</svg>
