<svg xmlns="http://www.w3.org/2000/svg" viewBox="0 0 1254 1254" fill="none">
  <defs>
    <radialGradient id="plate" cx="0" cy="0" r="1" gradientUnits="userSpaceOnUse" gradientTransform="translate(627 627) rotate(90) scale(595)">
      <stop stop-color="#17110D"/>
      <stop offset=".72" stop-color="#0A0908"/>
      <stop offset="1" stop-color="#030303"/>
    </radialGradient>
    <linearGradient id="line" x1="80" y1="0" x2="290" y2="310" gradientUnits="userSpaceOnUse">
      <stop stop-color="#FFE8C8"/>
      <stop offset=".48" stop-color="#CC8150"/>
      <stop offset="1" stop-color="#FFE1B8"/>
    </linearGradient>
    <filter id="ringShadow" x="-30%" y="-30%" width="160%" height="160%" color-interpolation-filters="sRGB">
      <feDropShadow dx="0" dy="20" stdDeviation="14" flood-color="#000" flood-opacity=".74"/>
      <feDropShadow dx="0" dy="0" stdDeviation="6" flood-color="#D48650" flood-opacity=".22"/>
    </filter>
  </defs>
  <rect width="1254" height="1254" fill="#000"/>
  <g stroke="url(#line)" stroke-width="4" stroke-linecap="round" stroke-linejoin="round">
    <g filter="url(#ringShadow)" transform="translate(72 72)">
      <circle cx="150" cy="150" r="145" fill="url(#plate)"/>
      <rect x="83" y="94" width="134" height="102" rx="14"/>
      <path d="M103 118H134V150H103V118Z"/>
      <path d="M153 119H199M153 146H199M103 171H199"/>
      <path d="M125 214H175M150 196V214"/>
    </g>
    <g filter="url(#ringShadow)" transform="translate(477 72)">
      <circle cx="150" cy="150" r="145" fill="url(#plate)"/>
      <path d="M94 102C94 77 114 57 139 57H161C186 57 206 77 206 102V139C206 164 186 184 161 184H150L103 223V184C98 184 94 180 94 175V102Z"/>
      <circle cx="126" cy="125" r="7" fill="#E7B17B"/>
      <circle cx="150" cy="125" r="7" fill="#E7B17B"/>
      <circle cx="174" cy="125" r="7" fill="#E7B17B"/>
      <path d="M198 72L224 46M207 44H224V61"/>
    </g>
    <g filter="url(#ringShadow)" transform="translate(882 72)">
      <circle cx="150" cy="150" r="145" fill="url(#plate)"/>
      <rect x="78" y="87" width="144" height="126" rx="14"/>
      <path d="M78 121H222M114 67V103M186 67V103"/>
      <path d="M112 151H130M146 151H164M180 151H198M112 182H130M146 182H164"/>
      <circle cx="197" cy="194" r="32"/>
      <path d="M183 194L194 205L214 181"/>
    </g>

    <g filter="url(#ringShadow)" transform="translate(72 477)">
      <circle cx="150" cy="150" r="145" fill="url(#plate)"/>
      <path d="M91 194V91H209V194H91Z"/>
      <path d="M91 124H209"/>
      <circle cx="114" cy="108" r="4" fill="#E7B17B"/>
      <circle cx="132" cy="108" r="4" fill="#E7B17B"/>
      <circle cx="150" cy="108" r="4" fill="#E7B17B"/>
      <path d="M116 154H184M116 178H158"/>
    </g>
    <g filter="url(#ringShadow)" transform="translate(477 477)">
      <circle cx="150" cy="150" r="145" fill="url(#plate)"/>
      <path d="M86 197L215 82L181 214L144 165L86 197Z"/>
      <path d="M144 165L215 82"/>
    </g>
    <g filter="url(#ringShadow)" transform="translate(882 477)">
      <circle cx="150" cy="150" r="145" fill="url(#plate)"/>
      <path d="M102 210V93H198V210"/>
      <path d="M102 124H198M126 93V210M174 93V210"/>
      <path d="M91 210H209"/>
      <circle cx="228" cy="90" r="22"/>
      <path d="M218 90L226 98L240 80"/>
    </g>

    <g filter="url(#ringShadow)" transform="translate(72 882)">
      <circle cx="150" cy="150" r="145" fill="url(#plate)"/>
      <path d="M154 63C166 124 187 145 248 157C187 169 166 190 154 251C142 190 121 169 60 157C121 145 142 124 154 63Z"/>
      <path d="M223 213C230 246 242 258 275 265C242 272 230 284 223 317C216 284 204 272 171 265C204 258 216 246 223 213Z"/>
      <path d="M80 230C85 254 94 263 118 268C94 273 85 282 80 306C75 282 66 273 42 268C66 263 75 254 80 230Z"/>
    </g>
    <g filter="url(#ringShadow)" transform="translate(477 882)">
      <circle cx="150" cy="150" r="145" fill="url(#plate)"/>
      <path d="M98 208V171C98 142 121 119 150 119C179 119 202 142 202 171V208"/>
      <circle cx="150" cy="86" r="43"/>
      <path d="M92 226H208"/>
    </g>
    <g filter="url(#ringShadow)" transform="translate(882 882)">
      <circle cx="150" cy="150" r="145" fill="url(#plate)"/>
      <path d="M150 218C150 218 73 174 73 119C73 87 98 67 126 67C142 67 154 75 164 91C174 75 186 67 202 67C230 67 255 87 255 119C255 174 150 218 150 218Z"/>
    </g>
  </g>
</svg>
